<?xml version="1.0" standalone="no"?><!DOCTYPE svg PUBLIC "-//W3C//DTD SVG 1.1//EN" "http://www.w3.org/Graphics/SVG/1.1/DTD/svg11.dtd"><svg t="1643247718667" class="icon" viewBox="0 0 1024 1024" version="1.1" xmlns="http://www.w3.org/2000/svg" p-id="12443" xmlns:xlink="http://www.w3.org/1999/xlink" width="200" height="200"><defs><style type="text/css"></style></defs><path d="M752 416c-9.824 0-19.456 0.768-28.96 1.92L645.664 176H512a32 32 0 0 0 0 64h86.912l21.248 66.432-328.096 198.432-70.688-112.864H256a32 32 0 0 0 0-64H96a32 32 0 0 0 0 64h49.856l75.584 120.672c-4.448-0.32-8.896-0.672-13.44-0.672C110.944 512 32 590.976 32 688S110.944 864 208 864s176-78.976 176-176a175.456 175.456 0 0 0-57.088-129.376l313.312-189.536 20.8 64.96C573.664 469.984 512 555.872 512 656c0 132.352 107.648 240 240 240s240-107.648 240-240-107.648-240-240-240z m-544 384C146.24 800 96 749.76 96 688S146.24 576 208 576s112 50.24 112 112S269.76 800 208 800z m544 32a176.224 176.224 0 0 1-176-176 176.16 176.16 0 0 1 104.608-160.704l56.736 177.344a31.968 31.968 0 1 0 60.928-19.52l-55.232-172.672c2.976-0.128 5.952-0.448 8.96-0.448 97.024 0 176 78.976 176 176S849.024 832 752 832z" p-id="12444"></path></svg>