<?xml version="1.0" standalone="no"?><!DOCTYPE svg PUBLIC "-//W3C//DTD SVG 1.1//EN" "http://www.w3.org/Graphics/SVG/1.1/DTD/svg11.dtd"><svg t="1643247693696" class="icon" viewBox="0 0 1024 1024" version="1.1" xmlns="http://www.w3.org/2000/svg" p-id="11633" xmlns:xlink="http://www.w3.org/1999/xlink" width="200" height="200"><defs><style type="text/css"></style></defs><path d="M726.34368 296.12032V171.56096c0-20.6848-4.97664-25.72288 14.9504-25.72288h74.26048a18.69824 18.69824 0 0 1 21.93408 14.62272 18.7392 18.7392 0 0 1-0.49152 9.07264v209.77664c-0.512 9.58464 3.4816 18.67776 10.9568 24.71936 34.4064 28.24192 67.7888 57.48736 101.6832 86.7328 16.44544 14.1312 16.93696 21.17632 2.99008 38.31808-8.47872 10.09664-16.95744 20.6848-25.43616 31.27296-4.97664 9.58464-15.93344 13.1072-25.3952 8.06912a22.4256 22.4256 0 0 1-6.49216-5.5296l-359.8336-311.15264c-3.97312-3.52256-8.45824-7.0656-13.45536-11.10016a9823.27296 9823.27296 0 0 1-80.73216 69.09952L149.23776 561.8688a18.92352 18.92352 0 0 1-26.4192 4.54656 26.46016 26.46016 0 0 1-5.98016-7.0656c-8.97024-11.10016-18.432-22.20032-27.40224-33.792a19.47648 19.47648 0 0 1-3.4816-27.2384 14.68416 14.68416 0 0 1 5.95968-5.03808c54.33344-47.39072 108.6464-94.28992 163.47136-141.18912 72.76544-62.52544 145.01888-125.07136 217.78432-187.5968a66.99008 66.99008 0 0 1 95.19104-2.51904l2.49856 2.51904c38.87104 33.792 78.2336 67.584 117.12512 101.376 1.98656 1.49504 3.97312 3.01056 7.4752 6.0416l30.88384 24.20736z m-101.66272 602.112V691.95776h-203.32544v206.2336c-4.5056 0 3.4816 0 0 0h-174.94016c-37.376 0-25.9072 5.55008-27.91424-34.28352-0.49152-88.24832-0.49152-186.08128 0-274.3296 0-4.52608-5.98016-4.03456-1.98656-7.04512 59.31008-50.93376 118.62016-101.86752 178.42176-152.30976 39.36256-33.792 79.23712-67.584 118.59968-101.35552 2.99008-2.51904 6.00064-5.03808 9.97376-8.06912a7461.4784 7461.4784 0 0 0 70.77888 60.0064c77.25056 66.06848 156.4672 143.21664 234.22976 209.28512 8.47872 7.0656 9.97376 3.03104-0.49152 19.16928-2.00704 84.70528 0 171.95008 0.49152 255.65184a99.04128 99.04128 0 0 0 0 34.304 76.86144 76.86144 0 0 1-33.8944 0c-69.77536-1.024-100.6592-1.024-169.94304-1.024 11.96032 0 2.00704 0.512 0 0z" p-id="11634"></path></svg>