<?xml version="1.0" standalone="no"?><!DOCTYPE svg PUBLIC "-//W3C//DTD SVG 1.1//EN" "http://www.w3.org/Graphics/SVG/1.1/DTD/svg11.dtd"><svg t="1643206961655" class="icon" viewBox="0 0 1024 1024" version="1.1" xmlns="http://www.w3.org/2000/svg" p-id="4061" xmlns:xlink="http://www.w3.org/1999/xlink" width="200" height="200"><defs><style type="text/css"></style></defs><path d="M0 0h1024v1024H0z" fill="#FFFFFF" p-id="4062"></path><path d="M608 938.666667a31.872 31.872 0 0 1-22.613333-9.344l-37.973334-37.973334 323.456-322.986666a85.845333 85.845333 0 0 0 25.088-60.629334V256h37.546667a44.885333 44.885333 0 0 1 30.293333 12.416l5.12 5.12a44.672 44.672 0 0 1 12.373334 30.293333V507.733333a171.392 171.392 0 0 1-52.053334 122.88l-298.666666 298.666667a31.744 31.744 0 0 1-22.570667 9.386667z m-160.64-85.333334a42.666667 42.666667 0 0 1-30.122667-12.416L55.04 478.72a42.666667 42.666667 0 0 1 0-60.117333L363.093333 110.506667A86.058667 86.058667 0 0 1 423.68 85.333333h339.2a44.672 44.672 0 0 1 30.293333 12.373334l5.162667 5.162666a44.458667 44.458667 0 0 1 12.288 30.250667v339.2a86.058667 86.058667 0 0 1-25.173333 60.586667l-308.053334 308.053333a42.368 42.368 0 0 1-30.037333 12.373333zM423.68 170.666667l-278.186667 277.76 302.08 302.08 277.717334-278.186667V170.666667H423.68z m130.944 256a85.333333 85.333333 0 1 1 85.333333-85.333334 85.333333 85.333333 0 0 1-85.333333 85.333334z" p-id="4063"></path></svg>