<?xml version="1.0" standalone="no"?><!DOCTYPE svg PUBLIC "-//W3C//DTD SVG 1.1//EN" "http://www.w3.org/Graphics/SVG/1.1/DTD/svg11.dtd"><svg t="1643264080129" class="icon" viewBox="0 0 1024 1024" version="1.1" xmlns="http://www.w3.org/2000/svg" p-id="12653" xmlns:xlink="http://www.w3.org/1999/xlink" width="200" height="200"><defs><style type="text/css"></style></defs><path d="M464.575386 869.245404c9.893324 0 14.8318-4.808516 14.8318-14.436804-0.39295-8.978489-10.608615-13.595646-30.634718-13.862729-1.302669 0-1.951445 0.662079-1.951445 1.958608 3.76986 2.861164 7.345292 8.778944 10.723226 17.760502C459.111954 866.385263 461.461465 869.245404 464.575386 869.245404z" p-id="12654"></path><path d="M516.677021 863.001189c9.891278-0.388856 17.951861-1.752924 24.196075-4.100388 8.457626-2.594081 12.684904-4.938476 12.684904-7.013741 0-2.602268-1.882883-5.990434-5.65786-10.160407-5.072529-5.066389-9.819646-7.732102-14.240329-7.994068-6.240121 0.914836-9.367345 1.821485-9.367345 2.728134 2.462075 0.267083 3.714602 1.76418 3.714602 4.485151 0 4.949732-4.182252 11.842723-12.498662 20.691251C515.506359 862.547865 515.905448 863.001189 516.677021 863.001189z" p-id="12655"></path><path d="M361.08536 311.060525c-0.593518 0-1.163499 0.185218-1.644453 0.537236-0.115634 0.083911-11.625782 8.519024-22.565948 17.367553-5.599532 4.508687-11.060917 9.127891-14.978133 12.673647-3.944845 3.558036-6.502088 6.115278-6.538927 6.152117-0.679475 0.697895-0.705058 1.817392-0.014326 2.600221 0.348947 0.361227 0.836041 0.567935 1.338485 0.567935 0.468674 0 0.916882-0.174985 1.272993-0.503467 0.025583-0.023536 2.599198-2.435469 6.573719-5.794983 3.957125-3.348258 9.496282-7.731078 15.20019-12.028964 11.133571-8.419763 22.814612-16.400528 23.0029-16.532535 0.602727-0.438998 0.998747-1.087774 1.112334-1.824555 0.113587-0.73678-0.064468-1.472538-0.50756-2.077312C362.811678 311.485197 361.968473 311.060525 361.08536 311.060525z" p-id="12656"></path><path d="M361.089453 297.617351c-0.363274 0-0.719384 0.069585-1.045819 0.200568-0.166799 0.065492-16.927531 6.662747-33.001625 14.232143-8.682753 4.070712-16.504906 8.121981-22.011316 11.400654-5.862521 3.414773-9.365298 6.290263-9.504468 6.40385-0.7552 0.615007-0.887206 1.740644-0.292666 2.509147 0.346901 0.447185 0.868787 0.703011 1.432629 0.703011 0.400113 0 0.794086-0.135076 1.110287-0.379647 0.034792-0.027629 3.511987-2.700505 9.211802-5.811356 5.447059-3.039219 13.249769-6.794753 21.972431-10.574846 16.144702-7.033184 32.92897-13.08297 33.05586-13.129019l0.13303-0.047072c0.709151-0.283456 1.264806-0.825808 1.565658-1.527796 0.299829-0.700965 0.310062-1.475608 0.026606-2.180666C363.305935 298.323433 362.263186 297.617351 361.089453 297.617351z" p-id="12657"></path><path d="M361.10685 285.371446c-0.092098 0-0.184195 0.004093-0.26606 0.011256-0.192382 0.016373-4.771677 0.399089-11.512195 1.554402-7.867178 1.299599-16.863063 3.382027-24.670889 5.713119-8.007371 2.341325-16.658402 5.542226-23.721261 8.775874-3.40761 1.514493-5.976108 2.834558-7.507998 3.663436l-2.835581 1.467421c-0.810459 0.460488-1.11745 1.500167-0.682545 2.318812 0.300852 0.565888 0.886183 0.917906 1.529843 0.917906 0.277316 0 0.552585-0.067538 0.753153-0.174985l2.834558-1.344624c2.339278-1.14508 4.836145-2.25025 7.437389-3.290953 7.004531-2.902096 15.555278-5.716188 23.466458-7.719822 7.673773-1.989307 16.505929-3.697205 24.240077-4.687766 6.587022-0.877997 11.024078-1.084705 11.06808-1.086751l0.1361-0.01228c0.812505-0.071631 1.549286-0.456395 2.074242-1.083681 0.527003-0.627287 0.775666-1.420349 0.704035-2.238994C364.009969 286.567691 362.700137 285.371446 361.10685 285.371446z" p-id="12658"></path><path d="M410.605194 230.27971c0.36225-0.014326 0.723477-0.021489 1.083681-0.021489 2.488681 0 4.983501 0.341784 7.397481 0.671289 1.313925 0.179079 2.670829 0.36532 4.006244 0.49221 1.240247 0.223081 2.483564 0.533143 3.685949 0.831948 0.709151 0.174985 1.412163 0.349971 2.142803 0.514723 1.906419 0.388856 3.686972 0.917906 5.317099 1.584078 0.661056 0.25378 1.321088 0.48607 1.974981 0.715291 1.081635 0.38067 2.103918 0.73985 3.016707 1.154289l0.366344 0.179079c1.451048 0.710175 2.851954 1.396813 4.117784 2.00875l0.734734 0.422625c2.451842 1.407046 4.76656 2.736321 6.600325 4.231371 1.832741 1.294482 3.282766 2.606361 4.561899 3.762697l0.412392 0.36839 0.350994 0.361227c1.051959 1.079588 1.958608 2.012843 2.356674 2.536776l0.071631 0.088004c0.478907 0.538259 0.804319 1.010003 0.807389 1.014096l0.071631 0.096191c0.095167 0.134053 0.199545 0.267083 0.312108 0.398066 1.023306 1.174756 2.50096 1.849114 4.056386 1.849114 1.290389 0 2.535753-0.464581 3.511987-1.310855 2.233877-1.942235 2.475378-5.337565 0.539282-7.567349l-1.177825-1.359974c-0.8913-1.037632-2.110057-2.171456-3.654226-3.606131l-0.180102-0.163729-0.355087-0.294712c-1.566682-1.300622-3.518127-2.920516-5.829775-4.406356-2.416026-1.77339-5.380544-3.289929-8.518001-4.894474l-0.312108-0.156566-5.184069-2.246157c-1.234107-0.49528-2.536776-0.890276-3.798513-1.272993-0.651846-0.197498-1.309832-0.397043-1.940189-0.603751-1.969864-0.691755-4.104481-1.223874-6.314823-1.576915-0.712221-0.127913-1.428535-0.270153-2.148943-0.414439-1.407046-0.280386-2.861164-0.571005-4.352121-0.766456l-0.11154-0.010233c-1.338485-0.070608-2.668783-0.190335-4.077875-0.317225-2.227738-0.199545-4.533246-0.406253-6.866385-0.406253-1.001817 0-1.926886 0.036839-2.76088 0.10847l-7.051603 0.25071c-1.561565 0.163729-3.130294 0.394996-4.644787 0.6191-0.771573 0.113587-1.545192 0.228197-2.351558 0.338714-0.787946 0.12689-1.577938 0.233314-2.368954 0.339738-1.508353 0.203638-3.068895 0.414439-4.630461 0.769526l-6.698562 1.672082c-0.766456 0.198521-1.532913 0.38681-2.296299 0.575098-1.415232 0.348947-2.877537 0.709151-4.376681 1.149173l-6.241145 2.203178c-1.193175 0.442068-2.382257 0.854461-3.560082 1.261737-2.895957 1.001817-5.631254 1.948375-8.154727 3.225461-3.596921 1.638313-6.991228 3.182482-10.086729 4.588505-2.294252 0.951675-4.342912 2.110057-6.151094 3.13234-0.788969 0.445138-1.548262 0.874927-2.315742 1.280156 0 0-4.64274 2.569522-6.338359 3.502777l-5.511527 3.053546c-0.942465 0.528026-1.305739 1.701758-0.828878 2.668783 0.343831 0.699941 1.043772 1.134847 1.824555 1.134847 0.308015 0 0.618077-0.071631 0.937348-0.229221l5.624091-2.785439c1.718131-0.855484 3.800559-1.885953 6.180769-3.062755l0.231267-0.11461c0.788969-0.370437 1.597381-0.778736 2.432399-1.202385 1.841951-0.932232 3.745301-1.89721 5.930059-2.687202l10.264784-4.122901c2.417049-1.087774 5.062296-1.86958 7.861038-2.697435 1.194198-0.353041 2.4017-0.709151 3.589758-1.089821l6.096858-1.854231c1.320065-0.320295 2.64627-0.581238 4.050246-0.858554 0.788969-0.155543 1.578961-0.311085 2.357697-0.475837l6.528694-1.323135c1.352811-0.242524 2.718925-0.36225 4.164856-0.490164 0.809435-0.071631 1.61887-0.143263 2.38635-0.232291 0.824785-0.072655 1.6465-0.156566 2.471284-0.240477 1.351787-0.138146 2.750647-0.280386 4.109598-0.366344L410.605194 230.27971z" p-id="12659"></path><path d="M604.814384 295.198256c-0.654916 0-1.27504 0.284479-1.706875 0.782829-0.020466 0.022513-2.057869 2.333138-6.758937 4.802376-3.065825 1.51961-6.109138 2.563382-9.274224 3.182482-2.550079 0.443092-5.221932 0.668219-7.934716 0.668219-1.62501 0-3.279696-0.080841-4.858658-0.234337-4.137227-0.590448-9.575076-1.559519-14.995529-3.854794-4.190439-1.571798-8.383948-3.76065-12.821003-6.079462-1.039679-0.543376-2.090615-1.091868-3.155876-1.64036-5.866614-3.01159-11.642155-5.916756-17.764596-8.347109-6.326079-2.618641-13.214976-4.003174-19.923772-4.003174-0.264013 0-0.528026 0.002047-0.74292 0.00614-0.254803-0.004093-0.511653-0.00614-0.76748-0.00614-6.616698 0-13.681604 1.423419-19.87056 4.000104-6.099928 2.424212-11.661597 5.219885-17.779945 8.359388-1.067308 0.549515-2.125407 1.102101-3.175319 1.650593-4.442172 2.321882-8.636704 4.514827-12.895705 6.114255-5.333472 2.26253-10.766205 3.231601-14.84101 3.814886-1.650593 0.160659-3.313465 0.242524-4.944616 0.242524-2.710738 0-5.379521-0.223081-7.899924-0.657986-3.206018-0.627287-6.251378-1.671059-9.298783-3.186576-2.255367-1.143033-3.874237-2.331092-5.260817-3.423983-1.050935-0.870834-1.52575-1.390673-1.533936-1.399883-0.422625-0.464581-1.026376-0.731664-1.658779-0.731664-0.51677 0-1.016143 0.180102-1.410116 0.50756-0.938372 0.781806-1.071402 2.182712-0.311085 3.108804 0.098237 0.122797 2.473331 3.055592 7.893784 6.155187 5.682419 3.269463 13.137205 5.145184 20.452821 5.145184 1.496074 0 3.01466-0.075725 4.555759-0.229221 4.497431-0.578168 10.43056-1.555425 16.397459-3.982708 4.52813-1.638313 8.859785-3.830235 13.44522-6.151094 1.059122-0.536212 2.125407-1.076518 3.198855-1.610684 5.743818-2.857071 11.393491-5.608741 17.336854-7.877411 5.664-2.231831 11.272741-3.317559 17.141402-3.317559 0.403183 0 0.804319 0.005117 1.284249 0.01535 0.398066-0.010233 0.793062-0.01535 1.189082-0.01535 5.77861 0 11.534707 1.11745 17.127076 3.326768 5.900384 2.25639 11.558244 5.0142 17.314341 7.878434 1.069355 0.533143 2.13257 1.071402 3.191692 1.608637 4.3951 2.226714 8.939603 4.52813 13.434987 6.151094 6.018064 2.453888 11.93789 3.425006 16.46295 4.001127 1.503237 0.149403 3.025916 0.225127 4.527107 0.225127 7.323802 0 14.778588-1.873674 20.444635-5.134951 5.414313-3.084245 7.800663-6.024204 7.936763-6.202259 0.76748-0.951675 0.64366-2.320858-0.287549-3.122107C605.867366 295.389614 605.346503 295.198256 604.814384 295.198256z" p-id="12660"></path><path d="M659.731134 243.974617c2.152013 0.776689 4.064572 1.74576 5.915733 2.684132 0.824785 0.417509 1.620917 0.820692 2.371 1.174756 2.493797 1.230014 4.65809 2.303462 6.439666 3.190669l5.668093 2.808976c0.277316 0.135076 0.587378 0.205685 0.893346 0.205685 0.726547 0 1.407046-0.393973 1.782599-1.049912 0.537236-0.981351 0.180102-2.218528-0.793062-2.753717l-11.870352-6.566556c-0.731664-0.38681-1.482771-0.811482-2.260483-1.251503-1.816369-1.027399-3.875261-2.191922-6.135744-3.12927 0 0-6.940063-3.152806-10.079566-4.583388-2.577708-1.301645-5.310959-2.249227-8.207939-3.251044-1.175779-0.407276-2.366907-0.819668-3.581572-1.269923l-6.29231-2.220574c-1.426489-0.416486-2.895957-0.778736-4.320399-1.128707-0.757247-0.187265-1.517563-0.37453-2.292206-0.574075l-6.713912-1.676176c-1.524726-0.347924-3.083222-0.557702-4.588505-0.760317-0.794086-0.107447-1.590218-0.213871-2.415003-0.346901-0.765433-0.104377-1.530866-0.217964-2.296299-0.330528-1.52268-0.224104-3.097548-0.457418-4.764514-0.629333l-6.881734-0.239454c-0.907673-0.075725-1.834788-0.113587-2.837628-0.113587-2.336208 0-4.640694 0.206708-6.869455 0.407276-1.404999 0.12689-2.732228 0.245593-4.067642 0.317225l-0.109494 0.010233c-1.499144 0.195451-2.963495 0.488117-4.380774 0.77055-0.712221 0.141216-1.421372 0.282433-2.096754 0.405229-2.245134 0.361227-4.378727 0.8913-6.317892 1.571798-0.653893 0.213871-1.306762 0.412392-1.954515 0.608867-1.26276 0.38374-2.570545 0.780783-3.841491 1.292436l-5.234211 2.269693-0.264013 0.134053c-3.124154 1.599428-6.076392 3.109828-8.4126 4.827959-2.384303 1.535983-4.331655 3.154853-5.897314 4.455475l-0.416486 0.348947-0.075725 0.070608c-1.566682 1.452071-2.803859 2.599198-3.697205 3.641947l-1.167592 1.350764c-0.122797 0.138146-0.242524 0.287549-0.361227 0.451278-1.691525 2.424212-1.095961 5.77554 1.323135 7.472182 0.906649 0.633427 1.969864 0.969071 3.072989 0.969071 1.75497 0 3.399423-0.857531 4.369517-2.252297l0.065492-0.089028c0.004093-0.005117 0.330528-0.476861 0.811482-1.017166l0.064468-0.081864c0.408299-0.533143 1.327228-1.478677 2.39249-2.573615l0.24764-0.25992 0.543376-0.48914c1.26583-1.14201 2.698458-2.436492 4.583388-3.773953 1.75804-1.434675 4.073782-2.765997 6.525624-4.174066l0.684592-0.39295c1.459235-0.706081 2.969635-1.446955 4.495384-2.196015 0.955768-0.434905 1.984191-0.796132 3.076058-1.178849 0.645706-0.227174 1.300622-0.457418 1.988284-0.720408 1.596358-0.654916 3.372817-1.183965 5.308913-1.577938 0.704035-0.158612 1.411139-0.334621 2.122337-0.511653 1.199315-0.298805 2.438539-0.607844 3.675716-0.829901 1.330298-0.12689 2.684132-0.312108 3.994987-0.491187 2.415003-0.330528 4.910846-0.671289 7.393387-0.671289 0.36532 0 0.730641 0.007163 1.176802 0.023536l6.577812-0.075725c1.363044 0.086981 2.768043 0.230244 4.126994 0.36839 0.814552 0.083911 1.630127 0.166799 2.408863 0.234337 0.807389 0.093121 1.616824 0.164752 2.428306 0.236384 1.446955 0.12689 2.814092 0.24764 4.13518 0.484024l6.545066 1.328251c0.788969 0.165776 1.576915 0.321318 2.362814 0.476861 1.407046 0.277316 2.734274 0.539282 3.980661 0.838088l6.15007 1.870604c1.205455 0.385786 2.409886 0.741897 3.602038 1.093914 2.801812 0.827855 5.450129 1.610684 7.92653 2.724041C653.092947 241.311974 656.521023 242.685251 659.731134 243.974617z" p-id="12661"></path><path d="M693.984263 347.355149l-0.028653 0c-0.920976-0.905626-3.109828-3.022847-6.089695-5.715165-3.917216-3.538593-9.375531-8.156774-14.97711-12.672624-10.9504-8.850575-22.460548-17.284665-22.575158-17.368576l-0.098237-0.067538c-0.462534-0.306992-0.998747-0.469698-1.550309-0.469698-0.924045 0-1.785669 0.456395-2.302439 1.218758-0.420579 0.618077-0.575098 1.362021-0.435928 2.095731 0.141216 0.731664 0.557702 1.364067 1.170662 1.77646 0.11461 0.079818 11.792581 8.060583 22.931269 16.48137 5.736655 4.324492 11.273764 8.708336 15.193027 12.029988 3.975545 3.353374 6.547113 5.768377 6.583952 5.802146 0.345877 0.318248 0.793062 0.493234 1.26276 0.493234 0.499373 0 0.967024-0.194428 1.320065-0.548492 0.714268-0.718361 0.725524-1.861394 0.024559-2.602268L693.984263 347.355149z" p-id="12662"></path><path d="M713.837426 329.529155l-0.014326 0c-1.124614-0.880043-4.349051-3.310396-9.085936-6.070252-5.507434-3.281743-13.32754-7.333012-22.020526-11.406794-16.081257-7.571443-32.835849-14.167674-32.963763-14.216793l-0.12996-0.051165c-0.309038-0.11154-0.633427-0.167822-0.960885-0.167822-1.191128 0-2.26867 0.7552-2.686179 1.88493-0.25992 0.718361-0.225127 1.494027 0.099261 2.184759 0.324388 0.690732 0.903579 1.214664 1.622964 1.471514 0.167822 0.060375 16.950044 6.109138 33.097816 13.144368 8.696056 3.765767 16.498766 7.521301 21.982664 10.580986 5.691629 3.102664 9.162684 5.776563 9.207709 5.810333 0.313132 0.239454 0.703011 0.37146 1.098008 0.37146 0.559748 0 1.078565-0.25071 1.38351-0.642636 0.316202-0.369414 0.465604-0.839111 0.423649-1.322112-0.041956-0.478907-0.280386-0.929162-0.650823-1.237177L713.837426 329.529155z" p-id="12663"></path><path d="M660.429029 286.939151c-6.745634-1.157359-11.322883-1.540076-11.516288-1.556449l-0.264013-0.010233c-1.636267 0-2.979868 1.282203-3.057639 2.928702-0.067538 1.682315 1.242294 3.111874 2.921539 3.187599 0.044002 0.001023 4.481058 0.207731 11.07422 1.087774 7.710612 0.98749 16.544815 2.695389 24.240077 4.688789 7.918343 2.006703 16.468067 4.819772 23.473621 7.724938 3.294023 1.316995 5.854335 2.51324 7.439436 3.292999l2.839675 1.346671c0.228197 0.104377 0.471744 0.157589 0.725524 0.157589 0.649799 0 1.239224-0.354064 1.532913-0.915859 0.217964-0.409322 0.261966-0.896416 0.118704-1.338485-0.14224-0.440022-0.458441-0.810459-0.848321-1.003863l-2.761903-1.428535c-1.528819-0.828878-4.077875-2.13871-7.513114-3.668553-7.083326-3.240811-15.735379-6.441713-23.731494-8.779967C677.286975 290.319132 668.289044 288.23568 660.429029 286.939151z" p-id="12664"></path><path d="M568.00606 782.405593c-12.365632-5.330402-22.968108-11.895935-31.812543-19.707854-9.105379-7.28901-16.328897-13.71742-21.659299-19.310811-0.381693-0.522909-0.784876-1.044796-1.172709-1.566682 1.434675-1.299599 2.466168-3.384074 3.120061-6.242168 0-4.293793-2.470261-7.936763-7.41897-10.927887-4.802376-2.473331-9.359158-4.686742-13.652951-6.634094-2.078335-1.691525-3.898797-2.540869-5.472642-2.540869-6.754844 2.084475-10.136871 4.235464-10.136871 6.441713 3.773953 0 5.655813 2.27481 5.655813 6.828522-4.293793 13.531178-12.290931 26.804483-23.994484 39.809681-7.549953 9.243525-16.010649 17.561981-25.371854 24.969695-8.069793 7.556093-16.074094 14.319124-23.9996 20.305465 0 1.825578 0.906649 2.732228 2.726088 2.732228 16.778128-3.638877 32.200376-9.955746 46.245254-18.934235 6.378268 6.634094 11.246135 9.956769 14.640442 9.956769 2.604314-0.524956 5.393847-0.913812 8.383948-1.173732 1.172709 1.825578 2.01796 5.01113 2.536776 9.56689l0 0.781806c-17.950837 2.861164-31.411407 4.556783-40.387849 5.071506-1.952468 0-2.925632 0.720408-2.925632 2.14178 9.369392 10.281157 16.317641 15.420201 20.880563 15.420201 7.281847-1.168616 14.953573-2.270716 23.02132-3.322675 0.396019 10.803044 0.588401 21.735024 0.588401 32.789801-24.327058 2.861164-44.49233 4.355191-60.492746 4.485151-1.687432 0-2.536776 0.651846-2.536776 1.954515 7.803733 12.356422 14.497179 18.537192 20.095687 18.537192 32.783661-3.51608 63.36005-5.528923 91.719958-6.046716 11.57257 0.254803 23.343661 0.910743 35.322483 1.950422 4.948709 0 7.40669-1.825578 7.40669-5.470595-0.64366-4.291746-4.288676-9.231245-10.92277-14.827707-5.210675-3.640923-11.192923-5.924943-17.955954-6.830569-4.812609 0.134053-11.709693 0.653893-20.675902 1.561565-5.209652 0.648776-11.000542 1.300622-17.367553 1.947352 0.12075-13.135158 0.252757-24.066115 0.382717-32.781614 11.715833-1.036609 24.073278-1.757017 37.07643-2.14178 4.946662 0 7.414877-2.217505 7.414877-6.641257-0.26913-1.817392-2.929726-4.744048-8.000208-8.778944-5.208629-3.904936-9.363252-5.857405-12.491499-5.857405-1.948375 0-9.689686 0.979304-23.220864 2.931772 0.134053-1.563612 0.322341-2.668783 0.597611-3.316535 0-2.080382-0.665149-4.102435-1.958608-6.054903 4.285606-0.265036 8.783037-0.448208 13.470803-0.582261 4.799306 0 7.211239-2.080382 7.211239-6.238075-0.26913-1.828648-2.860141-4.755304-7.798617-8.783037-5.080715-3.901867-9.109472-5.855358-12.101619-5.855358-1.560542 0-8.655124 1.493004-21.276582 4.486174-8.453533 2.079358-15.676028 3.643993-21.653159 4.686742 12.614296-9.498328 23.870664-21.538549 33.756825-36.103266 10.531867 12.097526 20.019962 23.938202 28.484751 35.513842 6.892991 10.147104 12.357446 15.485693 16.394389 16.000416 8.203846 0 20.422122-1.300622 36.69269-3.900843 8.188496-1.686409 12.287861-3.837398 12.287861-6.440689C597.66352 794.575774 587.775312 789.95043 568.00606 782.405593z" p-id="12665"></path><path d="M947.503257 476.41248c-0.603751-7.649214-1.409093-15.256472-2.402723-22.832008 0.38988-1.181919 0.706081-2.4017 0.915859-3.666506 2.743484-16.785292-1.086751-33.623795-10.750855-47.564295-5.462408-21.48636-12.539594-42.579771-21.255093-63.187111-22.363334-52.875255-54.380538-100.360755-95.155197-141.138484-40.778752-40.777729-88.264253-72.792886-141.138484-95.157243-54.746882-23.155373-112.89728-34.895765-172.839487-34.895765-59.941184 0-118.091582 11.740392-172.836417 34.895765-52.874231 22.364357-100.359732 54.380538-141.137461 95.157243-40.778752 40.777729-72.79391 88.26323-95.15622 141.138484-23.155373 54.744835-34.898835 112.896256-34.898835 172.83744 0 59.940161 11.743462 118.091582 34.898835 172.836417 22.363334 52.875255 54.380538 100.360755 95.155197 141.138484 40.778752 40.777729 88.264253 72.792886 141.138484 95.157243 51.952232 21.973454 106.96722 33.660634 163.670663 34.796504 0.310062 0.007163 0.618077 0.011256 0.928139 0.017396 2.742461 0.050142 5.486968 0.082888 8.237615 0.082888 2.750647 0 5.495154-0.032746 8.238638-0.082888 0.311085-0.00614 0.618077-0.010233 0.927115-0.017396 56.703443-1.13587 111.722524-12.82305 163.670663-34.796504 52.876278-22.364357 100.361779-54.382585 141.138484-95.157243 40.778752-40.776705 72.792886-88.26323 95.157243-141.138484 11.891841-28.119431 20.765953-57.137325 26.590612-86.833671 14.129812-18.183128 22.550599-41.003879 22.550599-65.76175C963.154725 512.281409 957.770088 493.189585 947.503257 476.41248zM926.305469 407.371034c8.559956 11.902074 11.973706 26.424836 9.611915 40.894386-1.073448 6.577812-6.67605 11.350512-13.32447 11.350512-0.731664 0-1.472538-0.062422-2.204202-0.182149-7.361665-1.202385-12.375865-8.16496-11.174504-15.526625 0.455371-2.788509-1.435699-5.418406-4.225231-5.873778l-4.007267-0.654916c-1.335415-0.220011-2.708692 0.104377-3.813862 0.896416-1.101077 0.792039-1.843998 1.989307-2.064009 3.328815l-1.331321 8.15882c-1.075495 6.580882-6.67912 11.355629-13.32447 11.355629-0.731664 0-1.471514-0.063445-2.205225-0.183172-7.362688-1.201361-12.378935-8.165983-11.17655-15.528672l1.335415-8.16189c0.455371-2.791579-1.434675-5.41943-4.225231-5.874801l-4.007267-0.655939c-0.277316-0.045025-0.549515-0.066515-0.826831-0.066515-1.065262 0-2.110057 0.332575-2.988054 0.961908-1.100054 0.789992-1.842974 1.987261-2.062985 3.328815-1.073448 6.576789-6.67912 11.350512-13.328563 11.350512-0.731664 0-1.471514-0.060375-2.203178-0.180102-7.360641-1.202385-12.376888-8.169053-11.174504-15.530718 4.359284-26.686802 27.104311-46.052872 54.089919-46.052872 2.963495 0 5.965875 0.24457 8.922207 0.727571C905.063679 387.615085 917.745513 395.469983 926.305469 407.371034zM504.876254 945.79587c-11.171434 0-22.2477-0.60989-33.203216-1.769296L351.814206 824.164672l153.062048-153.060001 153.063071 153.060001L538.080493 944.024527C527.126001 945.18598 516.049734 945.79587 504.876254 945.79587zM668.793534 827.78206c0.959861-0.959861 1.499144-2.260483 1.499144-3.616364s-0.537236-2.659573-1.499144-3.616364L508.494665 660.248416c-1.998517-1.998517-5.237281-1.998517-7.235798 0L340.959997 820.547285c-1.997494 1.99647-1.997494 5.235235 0 7.232728l114.003474 114.00552c-63.560618-10.263761-122.156154-40.072671-168.573323-86.490863-58.360176-58.359152-90.499154-135.953392-90.499154-218.4902 0-35.417651 5.942339-70.148663 17.660218-103.219873 8.890484-25.095561 20.963451-48.820915 35.969213-70.78823 6.820336 43.538609 32.739659 83.4629 74.705446 114.232694 48.261167 35.385928 112.418372 54.874795 180.653453 54.874795 70.854744 0 147.112546-17.191544 203.994044-45.985334 16.112979-8.156774 30.454616-17.070794 42.957371-26.654057 8.429996 32.395828 31.642674 58.892295 61.975517 71.818699 0.032746 1.905396 0.060375 3.814886 0.060375 5.722328 0 82.533738-32.140001 160.127977-90.500177 218.4902-46.417169 46.417169-105.011682 76.227102-168.574347 86.490863L668.793534 827.78206zM748.943992 543.265074c-13.065574 10.806113-28.618804 20.800745-46.540989 29.874401-54.970986 27.826765-128.810714 44.441165-197.523679 44.441165-65.211211 0-126.356826-18.502399-172.182524-52.102658-33.422204-24.50409-55.815213-55.105039-65.386196-88.536452 12.83533 24.88476 30.809703 47.783283 53.473889 67.659983 49.208748 43.152822 114.587781 66.919109 184.092785 66.919109 69.508074 0 134.88813-23.766286 184.092785-66.919109 29.834492-26.166963 51.561329-57.56916 64.098877-91.852988 4.762467 6.408967 9.253758 12.986779 13.489222 19.715017-11.606339 17.322527-18.173918 38.003546-18.173918 59.777455C748.382197 535.962761 748.573555 539.640524 748.943992 543.265074zM504.876254 601.287559c-138.103358 0-250.459309-98.251721-250.459309-219.018226 0-51.000558 20.513196-100.673887 57.759495-139.871631 0.688685-0.725524 1.150196-1.63729 1.327228-2.62171l17.801435-99.231025c0.478907-2.670829 2.097778-8.885368 6.771217-8.885368 2.28095 0 5.065366 1.391696 7.842619 3.921309l50.612725 46.085618c1.441838 1.313925 3.507894 1.693572 5.326309 0.974188 32.559557-12.875239 67.218938-19.403932 103.018282-19.403932 36.20355 0 71.222111 6.66991 104.078427 19.823488 1.820462 0.728594 3.897773 0.353041 5.346775-0.967024l51.083445-46.512337c2.777253-2.52859 5.563716-3.921309 7.842619-3.921309 4.672416 0 6.291287 6.213515 6.771217 8.885368l18.169825 101.285824c0.171915 0.963954 0.6191 1.858324 1.285273 2.576685 36.038798 38.847773 55.881728 87.807858 55.881728 137.860834C755.335562 503.035838 642.979612 601.287559 504.876254 601.287559zM904.583748 680.850639c-21.850657 51.655474-53.125965 98.04706-92.970438 137.888464-39.841404 39.84345-86.234013 71.119781-137.888464 92.971461-7.095605 3.001357-14.250562 5.8001-21.459754 8.407484 28.52466-14.882965 54.931077-34.181497 78.333066-57.583486 20.086477-20.087501 37.147038-42.389436 50.995441-66.340941l0.293689 0.159636 85.760223-157.38347c22.626323-2.501984 43.154869-12.06171 59.331293-26.423813C921.454998 635.81084 913.987932 658.619312 904.583748 680.850639zM827.846016 515.897773l2.082428-13.491269c9.359158 1.245364 20.258393-2.835581 27.745924-16.310477l24.12342 3.225461c0 0-5.510504 33.763988-7.557116 49.108464-1.061169 7.952112-2.076288 16.613376-3.323699 26.955932l15.20019 2.030239-2.792603 20.926612-62.623269-8.377808 1.541099-21.088294 16.874319 2.25946c1.316995-8.767688 2.707668-18.098193 3.961218-27.438932 0.613984-4.606925 1.031493-8.809643 1.788739-15.527648L827.846016 515.897773zM824.07718 634.853026c9.980305 3.091408 20.577664 4.759397 31.559786 4.7727l-41.188074 75.589582c6.365988-25.326828 9.649777-51.613518 9.649777-78.407768C824.098669 636.154671 824.08025 635.504872 824.07718 634.853026zM922.591891 476.5363c-1.650593 0-3.311419-0.137123-4.932336-0.405229-5.770424-0.940418-11.036357-3.459798-15.35164-7.325849-5.696746 5.891174-13.550621 9.231245-21.86089 9.231245-1.64957 0-3.310396-0.13917-4.929266-0.405229-9.784854-1.595334-18.241456-7.981788-22.534226-16.874319-3.771907 1.608637-7.884574 2.451842-12.016685 2.451842-1.650593 0-3.311419-0.1361-4.930289-0.405229-14.054087-2.289136-24.51944-14.044878-25.452695-27.991518-14.775518 6.857175-27.471678 16.817014-37.480636 28.887934-5.03262-7.780197-10.400884-15.365966-16.123212-22.722514 5.65479-18.924002 8.591679-38.614459 8.591679-58.71117 0-52.167127-20.440541-103.143125-57.589626-143.711076l-17.905812-99.816357c-1.914606-10.679223-8.371668-17.312294-16.844643-17.312294-4.906753 0-10.000771 2.278903-14.731516 6.588045l-48.726771 44.366464c-33.200146-12.858866-68.473511-19.378349-104.889909-19.378349-36.002982 0-70.904886 6.376221-103.800088 18.960841l-48.26833-43.949978c-4.731768-4.310166-9.827833-6.588045-14.731516-6.588045-8.475022 0-14.930037 6.633071-16.84362 17.311271l-17.532305 97.729835c-38.390355 40.933271-59.516512 92.65219-59.516512 145.799644 0 17.519002 2.227738 34.734082 6.545066 51.401694-1.831718 1.297552-3.031033 3.429099-3.031033 5.844102 0 2.632967 0.086981 5.254677 0.223081 7.867178-18.717294 25.341155-33.513278 53.137221-44.020586 82.784448-12.107759 34.174334-18.24555 70.050426-18.24555 106.637716 0 85.266989 33.202193 165.43075 93.495394 225.723951 23.400966 23.401989 49.806359 42.701544 78.33102 57.583486-7.208169-2.607384-14.364149-5.406127-21.459754-8.408507-51.655474-21.850657-98.045013-53.128011-137.888464-92.970438-39.84038-39.841404-71.119781-86.235037-92.968391-137.888464C82.548576 627.369587 71.07936 570.560744 71.07936 511.995907s11.470239-115.370611 34.088376-168.847569c21.848611-51.655474 53.128011-98.048083 92.968391-137.888464 39.84345-39.841404 86.235037-71.119781 137.888464-92.968391 53.477982-22.61916 110.285802-34.088376 168.851663-34.088376s115.374704 11.469216 168.851663 34.089399c51.655474 21.848611 98.04706 53.126988 137.888464 92.968391 39.842427 39.84038 71.119781 86.23299 92.970438 137.888464 6.080485 14.381545 11.344373 29.007661 15.805988 43.840484-8.207939-6.063089-17.786085-10.143011-28.14706-11.834536-3.499707-0.572028-7.055696-0.861624-10.570753-0.861624-32.024367 0-59.022255 22.978341-64.190975 54.638411-2.110057 12.929474 6.695492 25.166169 19.624966 27.27725 1.27504 0.208754 2.572592 0.314155 3.858888 0.314155 6.070252 0 11.644201-2.261507 15.865339-6.051833 1.255597 10.211573 9.104355 18.825764 19.761066 20.564361 1.279133 0.208754 2.576685 0.317225 3.858888 0.317225 9.400091 0 17.61417-5.425569 21.449521-13.560854 3.430122 6.039553 9.460466 10.541077 16.838503 11.745509 1.274016 0.208754 2.572592 0.316202 3.855818 0.316202 5.054109 0 9.763364-1.573845 13.636578-4.287653 0.261966 2.467191 0.50142 4.937452 0.721431 7.41283C932.594709 475.300147 927.696142 476.5363 922.591891 476.5363z" p-id="12666"></path></svg>