<?xml version="1.0" standalone="no"?><!DOCTYPE svg PUBLIC "-//W3C//DTD SVG 1.1//EN" "http://www.w3.org/Graphics/SVG/1.1/DTD/svg11.dtd"><svg t="1643207019663" class="icon" viewBox="0 0 1024 1024" version="1.1" xmlns="http://www.w3.org/2000/svg" p-id="7172" xmlns:xlink="http://www.w3.org/1999/xlink" width="200" height="200"><defs><style type="text/css"></style></defs><path d="M511.001949 0C228.783158 0 0 228.783158 0 511.001949s228.783158 511.001949 511.001949 511.001949 511.001949-228.783158 511.001949-511.001949S793.220741 0 511.001949 0zM511.001949 926.191033c-229.302144 0-415.189084-185.88694-415.189084-415.189084S281.699805 95.812865 511.001949 95.812865s415.189084 185.88694 415.189084 415.189084S740.304094 926.191033 511.001949 926.191033z" p-id="7173"></path><path d="M748.90729 246.518519l-173.740663 231.763337 136.89862 0 0 65.310441-159.506464 0 0 90.008203 159.506464 0 0 66.146807-159.506464 0 0 131.040062-82.055735 0 0-131.040062-165.369014 0 0-66.146807 165.369014 0 0-90.008203-165.369014 0 0-65.310441 141.086441 0L274.154542 246.518519l92.521294 0c80.383002 146.809263 129.219618 176.08209 146.529809 215.435228l1.674729 0L661.406191 246.518519 748.90729 246.518519z" p-id="7174"></path></svg>